<svg width="24" height="24" viewBox="0 0 24 24" fill="none" xmlns="http://www.w3.org/2000/svg">
<path d="M11.962 18.73C11.1487 18.174 10.282 17.7467 9.362 17.448C8.442 17.1493 7.488 17 6.5 17C5.98 17 5.46867 17.0433 4.966 17.13C4.464 17.218 3.97533 17.358 3.5 17.55C3.13733 17.6947 2.79667 17.6543 2.478 17.429C2.15933 17.2037 2 16.8927 2 16.496V6.87C2 6.62267 2.06833 6.39967 2.205 6.201C2.34167 6.00233 2.52067 5.86133 2.742 5.778C3.32933 5.51933 3.94033 5.325 4.575 5.195C5.20967 5.065 5.85133 5 6.5 5C7.48 5 8.429 5.15067 9.347 5.452C10.265 5.75333 11.1493 6.154 12 6.654V17.523C12.8373 16.9897 13.726 16.6027 14.666 16.362C15.6053 16.1207 16.55 16 17.5 16C18.0487 16 18.5463 16.0307 18.993 16.092C19.4397 16.1533 19.9163 16.2587 20.423 16.408C20.5643 16.446 20.6957 16.4493 20.817 16.418C20.939 16.3853 21 16.2793 21 16.1V5.639C21.096 5.65767 21.188 5.68433 21.276 5.719C21.364 5.75367 21.4477 5.79867 21.527 5.854C21.685 5.93733 21.8033 6.056 21.882 6.21C21.9607 6.364 22 6.53267 22 6.716V16.458C22 16.854 21.831 17.1617 21.493 17.381C21.1557 17.6003 20.7863 17.6437 20.385 17.511C19.9217 17.3317 19.4487 17.2017 18.966 17.121C18.4833 17.0403 17.9947 17 17.5 17C16.5 17 15.5267 17.14 14.58 17.42C13.6333 17.7 12.7607 18.1367 11.962 18.73ZM14 15V6.5L19 1.5V10.5L14 15ZM11 17.048V7.244C10.296 6.85733 9.568 6.55333 8.816 6.332C8.06533 6.11067 7.29333 6 6.5 6C5.88333 6 5.312 6.05533 4.786 6.166C4.26067 6.276 3.78733 6.41533 3.366 6.584C3.26267 6.62267 3.176 6.67733 3.106 6.748C3.036 6.81867 3.00067 6.90533 3 7.008V16.144C3 16.324 3.061 16.43 3.183 16.462C3.305 16.494 3.43633 16.484 3.577 16.432C3.981 16.2927 4.419 16.186 4.891 16.112C5.363 16.038 5.89933 16.0007 6.5 16C7.39467 16 8.23533 16.1047 9.022 16.314C9.80867 16.5227 10.468 16.7673 11 17.048Z" fill="#4A4A4A"/>
</svg>