<svg width="16" height="16" viewBox="0 0 16 16" fill="none" xmlns="http://www.w3.org/2000/svg">
<path d="M8 15.5C9.48336 15.5 10.9334 15.0601 12.1668 14.236C13.4001 13.4119 14.3614 12.2406 14.9291 10.8701C15.4968 9.49968 15.6453 7.99168 15.3559 6.53682C15.0665 5.08196 14.3522 3.74559 13.3033 2.6967C12.2544 1.6478 10.918 0.933499 9.46318 0.64411C8.00832 0.354721 6.50032 0.503246 5.12987 1.0709C3.75943 1.63856 2.58809 2.59985 1.76398 3.83322C0.939867 5.06659 0.5 6.51664 0.5 8C0.5 9.24 0.8 10.4083 1.33333 11.4392L0.5 15.5L4.56083 14.6667C5.59083 15.1992 6.76083 15.5 8 15.5Z" stroke="#4A4A4A" stroke-linecap="round" stroke-linejoin="round"/>
</svg>