<svg width="15" height="18" viewBox="0 0 15 18" fill="none" xmlns="http://www.w3.org/2000/svg">
<path d="M10.4829 0.703984C9.6839 -0.133016 8.3909 0.316984 8.0519 1.29398C7.7719 2.09998 7.4079 3.06598 7.0539 3.77698C5.9939 5.90298 5.3759 7.11198 3.6699 8.62598C3.42033 8.83716 3.13569 9.003 2.8289 9.11598C1.6989 9.56198 0.638903 10.732 0.915903 12.121L1.2689 13.886C1.35992 14.3414 1.57597 14.7624 1.89284 15.1019C2.20971 15.4413 2.61487 15.6858 3.0629 15.808L8.6629 17.335C9.26455 17.4988 9.89369 17.5359 10.5104 17.4437C11.1271 17.3516 11.718 17.1323 12.2454 16.7997C12.7729 16.4672 13.2255 16.0286 13.5745 15.5119C13.9236 14.9951 14.1614 14.4115 14.2729 13.798L14.9579 10.037C15.0366 9.6046 15.0193 9.16021 14.9072 8.73524C14.7952 8.31027 14.5912 7.91511 14.3096 7.5777C14.028 7.24029 13.6757 6.96887 13.2776 6.78264C12.8795 6.59641 12.4454 6.49992 12.0059 6.49998H11.1229L11.1329 6.44798C11.2129 6.03898 11.3089 5.47798 11.3729 4.86498C11.4379 4.25498 11.4729 3.57998 11.4219 2.95198C11.3719 2.33598 11.2379 1.70298 10.9179 1.22198C10.7878 1.03734 10.6423 0.864058 10.4829 0.703984Z" fill="#2699EB"/>
</svg>