<svg width="15" height="18" viewBox="0 0 15 18" fill="none" xmlns="http://www.w3.org/2000/svg">
<path d="M8.05189 1.294C8.39189 0.316999 9.68389 -0.133001 10.4819 0.703999C10.6459 0.873999 10.8079 1.058 10.9179 1.223C11.2379 1.703 11.3729 2.336 11.4219 2.953C11.4719 3.58 11.4379 4.254 11.3739 4.865C11.3158 5.39582 11.2354 5.92395 11.1329 6.448L11.1229 6.5H12.0059C12.4454 6.49993 12.8795 6.59643 13.2776 6.78266C13.6757 6.96889 14.028 7.24031 14.3096 7.57772C14.5912 7.91513 14.7952 8.31029 14.9072 8.73526C15.0193 9.16022 15.0366 9.60461 14.9579 10.037L14.2739 13.798C14.1624 14.4117 13.9245 14.9956 13.5754 15.5125C13.2262 16.0294 12.7734 16.4681 12.2457 16.8007C11.718 17.1332 11.1269 17.3525 10.51 17.4445C9.89301 17.5365 9.26367 17.4992 8.66189 17.335L3.06189 15.808C2.61404 15.6857 2.20909 15.4411 1.89241 15.1017C1.57573 14.7622 1.35982 14.3413 1.26889 13.886L0.915887 12.121C0.637887 10.732 1.69989 9.562 2.82889 9.116C3.13532 9.00291 3.41961 8.83708 3.66889 8.626C5.37589 7.112 5.99389 5.903 7.05389 3.776C7.40789 3.066 7.77189 2.1 8.05189 1.294ZM10.0169 6.879V6.877L10.0189 6.87L10.0259 6.839C10.072 6.64525 10.114 6.45054 10.1519 6.255C10.2279 5.867 10.3189 5.335 10.3789 4.76C10.4399 4.183 10.4689 3.576 10.4249 3.032C10.3809 2.476 10.2649 2.047 10.0849 1.777C9.98713 1.64043 9.87808 1.51232 9.75889 1.394C9.55989 1.186 9.13089 1.234 8.99689 1.622C8.71389 2.436 8.33289 3.452 7.94889 4.222C6.88189 6.363 6.19289 7.724 4.33289 9.374C3.99289 9.676 3.58889 9.891 3.19689 10.046C2.31689 10.394 1.74989 11.194 1.89689 11.925L2.24889 13.69C2.30358 13.9633 2.43331 14.2159 2.62355 14.4195C2.81378 14.6232 3.05698 14.7698 3.32589 14.843L8.92589 16.37C9.39381 16.4976 9.88314 16.5265 10.3628 16.4549C10.8425 16.3834 11.3021 16.2129 11.7124 15.9543C12.1228 15.6958 12.4749 15.3548 12.7464 14.9529C13.018 14.5511 13.203 14.0972 13.2899 13.62L13.9739 9.858C14.0263 9.56974 14.0148 9.27348 13.9401 8.99017C13.8654 8.70686 13.7294 8.44342 13.5417 8.21848C13.3539 7.99354 13.1191 7.81259 12.8537 7.68844C12.5883 7.56428 12.2989 7.49995 12.0059 7.5H10.5009C10.425 7.49983 10.3502 7.48239 10.2821 7.44902C10.2139 7.41564 10.1543 7.3672 10.1077 7.30737C10.061 7.24753 10.0286 7.17786 10.0129 7.10365C9.99716 7.02943 9.99853 6.95261 10.0169 6.879Z" fill="#CCCCCC"/>
</svg>