<svg width="26" height="24" viewBox="0 0 26 24" fill="none" xmlns="http://www.w3.org/2000/svg">
<path d="M15.5334 0.445726C15.6424 0.246487 15.826 0.0986553 16.044 0.0346948C16.2619 -0.0292656 16.4963 -0.00412519 16.6957 0.104595C19.9767 1.89425 24.8091 5.52326 25.7091 13.6196C25.7341 13.8455 25.6683 14.0721 25.5262 14.2496C25.3841 14.4271 25.1773 14.5408 24.9514 14.5658C24.7254 14.5908 24.4988 14.525 24.3213 14.3829C24.1439 14.2408 24.0301 14.0341 24.0051 13.8081C23.1909 6.47637 18.8796 3.24849 15.8763 1.60969C15.6767 1.50097 15.5285 1.31748 15.4642 1.09954C15.3999 0.881595 15.4248 0.645328 15.5334 0.445726ZM9.36562 3.95989C9.30132 3.80216 9.19147 3.66717 9.05011 3.57214C8.90874 3.47711 8.74227 3.42636 8.57194 3.42636C8.4016 3.42636 8.23513 3.47711 8.09376 3.57214C7.9524 3.66717 7.84255 3.80216 7.77825 3.95989L0.0642299 22.8164C0.021458 22.9206 -0.00036575 23.0322 4.63662e-06 23.1449C0.000375023 23.2576 0.0229324 23.3691 0.0663887 23.473C0.109845 23.5769 0.173349 23.6713 0.253276 23.7507C0.333202 23.8301 0.427985 23.893 0.532214 23.9358C0.636442 23.9785 0.748075 24.0004 0.860737 24C0.9734 23.9996 1.08489 23.9771 1.18883 23.9336C1.29278 23.8902 1.38714 23.8267 1.46655 23.7467C1.54595 23.6668 1.60883 23.572 1.6516 23.4678L4.28637 17.024V17.1423H12.8575V17.0257L15.4923 23.4661C15.5348 23.5703 15.5975 23.6651 15.6767 23.7451C15.7559 23.8252 15.85 23.8888 15.9538 23.9324C16.0576 23.976 16.169 23.9988 16.2816 23.9993C16.3941 23.9999 16.5057 23.9783 16.6099 23.9358C16.7142 23.8932 16.809 23.8306 16.889 23.7514C16.969 23.6722 17.0327 23.578 17.0763 23.4742C17.1199 23.3704 17.1426 23.2591 17.1432 23.1465C17.1438 23.0339 17.1222 22.9223 17.0796 22.8181L9.36562 3.95989ZM12.2044 15.4281H4.93778L8.57194 6.54837L12.2044 15.4281ZM15.8557 4.39873C15.6584 4.28575 15.4243 4.25579 15.2048 4.31542C14.9854 4.37505 14.7987 4.51941 14.6857 4.71672C14.5727 4.91404 14.5428 5.14815 14.6024 5.36756C14.662 5.58697 14.8064 5.7737 15.0037 5.88668C17.7448 7.45348 19.327 10.2048 19.723 12.9784C19.7553 13.2035 19.8756 13.4065 20.0576 13.5428C20.2395 13.6791 20.4682 13.7375 20.6932 13.7053C20.9183 13.673 21.1213 13.5526 21.2576 13.3707C21.3939 13.1887 21.4523 12.9601 21.4201 12.735C20.9589 9.50884 19.1144 6.26038 15.8557 4.39873Z" fill="white"/>
</svg>