<svg width="20" height="20" viewBox="0 0 20 20" fill="none" xmlns="http://www.w3.org/2000/svg">
<path d="M13.6898 1.37065C12.4455 0.0776518 10.2998 0.385152 9.47025 1.9759L6.70575 7.27465C6.63716 7.40582 6.54335 7.52217 6.42971 7.61702C6.31607 7.71187 6.18482 7.78337 6.0435 7.8274L1.821 9.1474C1.63632 9.20518 1.46966 9.30962 1.33714 9.45063C1.20462 9.59164 1.11071 9.76445 1.06448 9.95235C1.01826 10.1403 1.02129 10.3369 1.07328 10.5233C1.12526 10.7097 1.22445 10.8795 1.36125 11.0164L4.90725 14.5624L0 19.4696V19.9999H0.53025L5.4375 15.0927L8.9835 18.6386C9.12036 18.7755 9.2902 18.8746 9.47659 18.9266C9.66299 18.9786 9.85964 18.9816 10.0475 18.9354C10.2355 18.8892 10.4083 18.7953 10.5493 18.6628C10.6903 18.5302 10.7947 18.3636 10.8525 18.1789L12.1627 13.9857C12.2089 13.838 12.285 13.7014 12.3863 13.5845C12.4876 13.4676 12.6119 13.3728 12.7515 13.3062L17.9767 10.8072C19.5907 10.0347 19.9763 7.9099 18.7365 6.6199L13.6898 1.37065ZM10.1348 2.32315C10.2723 2.05932 10.4706 1.83201 10.7134 1.66C10.9562 1.48799 11.2364 1.37623 11.5309 1.33395C11.8254 1.29167 12.1258 1.32008 12.4071 1.41684C12.6885 1.5136 12.9428 1.67592 13.149 1.8904L18.1957 7.13965C18.4014 7.35355 18.5534 7.61322 18.6392 7.8973C18.725 8.18138 18.7421 8.48177 18.6892 8.77376C18.6362 9.06575 18.5147 9.341 18.3347 9.57689C18.1547 9.81278 17.9212 10.0026 17.6535 10.1307L12.4275 12.6297C12.1951 12.7409 11.988 12.8989 11.8194 13.0938C11.6507 13.2886 11.524 13.5162 11.4473 13.7622L10.137 17.9547C10.1178 18.0163 10.083 18.072 10.0361 18.1162C9.98906 18.1605 9.93143 18.1919 9.86875 18.2073C9.80606 18.2228 9.74045 18.2218 9.67826 18.2045C9.61606 18.1872 9.5594 18.1541 9.51375 18.1084L1.8915 10.4862C1.84603 10.4405 1.81309 10.3839 1.79587 10.3218C1.77864 10.2597 1.77771 10.1942 1.79316 10.1316C1.80861 10.0691 1.83993 10.0115 1.88408 9.9646C1.92824 9.91766 1.98375 9.88289 2.04525 9.86365L6.26775 8.54365C6.50317 8.46997 6.72173 8.35056 6.91092 8.19226C7.10011 8.03396 7.2562 7.83988 7.37025 7.62115L10.1348 2.32315Z" fill="white"/>
</svg>