<svg width="20" height="20" viewBox="0 0 20 20" fill="none" xmlns="http://www.w3.org/2000/svg">
<path d="M8.808 2.20722C9.72375 0.375716 12.165 -0.0202837 13.6125 1.42722L18.573 6.38772C20.0205 7.83522 19.6245 10.2772 17.793 11.1922L13.0305 13.5742C12.8983 13.6402 12.7803 13.7316 12.6834 13.8432C12.5865 13.9547 12.5126 14.0843 12.4658 14.2245L11.2208 17.9617C11.1399 18.2044 10.9984 18.4223 10.8097 18.5949C10.6209 18.7674 10.3912 18.8888 10.1423 18.9476C9.89339 19.0064 9.6336 19.0005 9.3876 18.9306C9.1416 18.8607 8.91755 18.7291 8.73675 18.5482L5.625 15.4357L1.0605 20.001H0V18.9397L4.5645 14.376L1.45275 11.2635C1.27224 11.0826 1.14091 10.8587 1.07122 10.6129C1.00153 10.3671 0.995784 10.1075 1.05453 9.85885C1.11328 9.61019 1.23457 9.38066 1.4069 9.19202C1.57924 9.00338 1.7969 8.86189 2.03925 8.78097L5.77575 7.53447C5.91599 7.48783 6.04566 7.41401 6.15736 7.31724C6.26907 7.22046 6.3606 7.10263 6.42675 6.97047L8.808 2.20722Z" fill="white"/>
</svg>