<svg width="24" height="24" viewBox="0 0 24 24" fill="none" xmlns="http://www.w3.org/2000/svg">
<path d="M12 20.235L21 18.9495V3.97948L12.318 5.21998C12.1071 5.25009 11.8929 5.25009 11.682 5.21998L3 3.97948V18.9495L12 20.235ZM3.2115 2.49448L11.8935 3.73498C11.9641 3.74511 12.0359 3.74511 12.1065 3.73498L20.7885 2.49448C21.0012 2.46418 21.2179 2.47994 21.424 2.54067C21.6301 2.60141 21.8208 2.70571 21.983 2.84652C22.1453 2.98732 22.2755 3.16135 22.3647 3.35681C22.4538 3.55228 22.5 3.76462 22.5 3.97948V18.9495C22.5 19.3107 22.3697 19.6597 22.133 19.9325C21.8963 20.2053 21.5691 20.3836 21.2115 20.4345L12.1065 21.735C12.0359 21.7451 11.9641 21.7451 11.8935 21.735L2.7885 20.4345C2.43093 20.3836 2.10374 20.2053 1.86703 19.9325C1.63033 19.6597 1.5 19.3107 1.5 18.9495V3.97948C1.5 3.76462 1.54616 3.55228 1.63535 3.35681C1.72454 3.16135 1.85468 2.98732 2.01696 2.84652C2.17924 2.70571 2.36988 2.60141 2.57597 2.54067C2.78206 2.47994 2.99879 2.46418 3.2115 2.49448Z" fill="white"/>
<path d="M11.25 4.5H12.75V21H11.25V4.5Z" fill="white"/>
</svg>