<svg width="16" height="16" viewBox="0 0 16 16" fill="none" xmlns="http://www.w3.org/2000/svg">
<path d="M15.2269 15.8665C15.6409 16.2782 16.2799 15.6428 15.8659 15.2401L12.4911 11.8753C13.6752 10.573 14.3297 8.8791 14.327 7.12339C14.327 3.19479 11.1142 0 7.16351 0C3.21278 0 0 3.19479 0 7.12339C0 11.052 3.21278 14.2468 7.16351 14.2468C8.94538 14.2468 10.5923 13.5935 11.8522 12.5107L15.2269 15.8665ZM0.899038 7.12339C0.899038 3.68698 3.71584 0.894898 7.16261 0.894898C10.6184 0.894898 13.4262 3.68698 13.4262 7.12339C13.4262 10.5598 10.6184 13.3519 7.16261 13.3519C3.71584 13.3519 0.899038 10.5598 0.899038 7.12339Z" fill="#4A4A4A"/>
</svg>