<svg width="38" height="24" viewBox="0 0 38 24" fill="none" xmlns="http://www.w3.org/2000/svg">
<path d="M11.9259 0.382883C11.8721 0.268404 11.7868 0.171608 11.68 0.103806C11.5732 0.0360048 11.4493 0 11.3228 0C11.1963 0 11.0725 0.0360048 10.9657 0.103806C10.8589 0.171608 10.7736 0.268404 10.7198 0.382883L0.0580052 23.0392C-0.0132312 23.1985 -0.0190807 23.3795 0.0417144 23.5431C0.10251 23.7068 0.225094 23.84 0.383108 23.9142C0.541122 23.9884 0.721946 23.9977 0.886698 23.9399C1.05145 23.8822 1.18697 23.7622 1.26412 23.6056L4.21943 17.3251H18.4262L21.3815 23.6056C21.4177 23.6864 21.4696 23.7592 21.5342 23.8198C21.5988 23.8804 21.6748 23.9274 21.7578 23.9583C21.8409 23.9891 21.9292 24.0031 22.0177 23.9994C22.1061 23.9957 22.193 23.9744 22.2732 23.9368C22.3533 23.8992 22.4252 23.8459 22.4845 23.7802C22.5439 23.7145 22.5895 23.6376 22.6188 23.554C22.6481 23.4704 22.6604 23.3818 22.655 23.2934C22.6497 23.205 22.6268 23.1186 22.5877 23.0392L11.9259 0.382883ZM4.84747 15.9924L11.3228 2.23037L17.7982 15.9924H4.84747ZM31.3137 7.99606C29.3695 7.99606 27.8669 8.50915 26.8457 9.52202C26.7836 9.58371 26.7342 9.65704 26.7004 9.73781C26.6666 9.81859 26.6491 9.90522 26.6488 9.99278C26.6481 10.1696 26.7178 10.3394 26.8424 10.4649C26.967 10.5904 27.1363 10.6612 27.3131 10.6619C27.49 10.6625 27.6598 10.5928 27.7853 10.4683C28.5466 9.71193 29.7344 9.32878 31.3137 9.32878C33.8858 9.32878 35.9782 11.123 35.9782 13.3269V15.3127C35.3809 14.6764 34.6577 14.1712 33.8547 13.8294C33.0517 13.4875 32.1863 13.3164 31.3137 13.3269C28.0068 13.3269 25.3164 15.7175 25.3164 18.6578C25.3164 21.5981 28.0068 23.9887 31.3137 23.9887C32.1863 23.9992 33.0517 23.8281 33.8547 23.4863C34.6577 23.1444 35.3809 22.6393 35.9782 22.003V23.3224C35.9782 23.4991 36.0484 23.6686 36.1734 23.7935C36.2983 23.9185 36.4678 23.9887 36.6445 23.9887C36.8213 23.9887 36.9908 23.9185 37.1157 23.7935C37.2407 23.6686 37.3109 23.4991 37.3109 23.3224V13.3269C37.3109 10.3883 34.6205 7.99606 31.3137 7.99606ZM31.3137 22.656C28.7415 22.656 26.6491 20.8618 26.6491 18.6578C26.6491 16.4538 28.7415 14.6597 31.3137 14.6597C33.8858 14.6597 35.9782 16.4538 35.9782 18.6578C35.9782 20.8618 33.8858 22.656 31.3137 22.656Z" fill="white"/>
</svg>