<svg width="20" height="20" viewBox="0 0 20 20" fill="none" xmlns="http://www.w3.org/2000/svg">
<path d="M9.94811 17.706C9.60811 18.683 8.31611 19.133 7.51811 18.296C7.35411 18.126 7.19211 17.942 7.08211 17.777C6.76211 17.297 6.62711 16.664 6.57811 16.047C6.52811 15.42 6.56211 14.746 6.62611 14.135C6.68417 13.6042 6.76457 13.076 6.86711 12.552L6.87711 12.5H5.99411C5.55463 12.5001 5.12049 12.4036 4.72242 12.2173C4.32434 12.0311 3.97204 11.7597 3.69044 11.4223C3.40883 11.0849 3.2048 10.6897 3.09277 10.2647C2.98074 9.83978 2.96344 9.39539 3.04211 8.963L3.72611 5.202C3.8376 4.58827 4.07547 4.00442 4.42462 3.48752C4.77377 2.97061 5.22657 2.53194 5.75428 2.19935C6.28199 1.86676 6.87308 1.64751 7.49004 1.55552C8.10699 1.46353 8.73633 1.50082 9.33811 1.665L14.9381 3.192C15.386 3.3143 15.7909 3.55888 16.1076 3.89834C16.4243 4.23781 16.6402 4.65875 16.7311 5.114L17.0841 6.879C17.3621 8.268 16.3001 9.438 15.1711 9.884C14.8647 9.99709 14.5804 10.1629 14.3311 10.374C12.6241 11.888 12.0061 13.097 10.9461 15.224C10.5921 15.934 10.2281 16.9 9.94811 17.706ZM7.98311 12.121V12.123L7.98111 12.13L7.97411 12.161C7.92796 12.3547 7.88595 12.5495 7.84811 12.745C7.77211 13.133 7.68111 13.665 7.62111 14.24C7.56011 14.817 7.53111 15.424 7.57511 15.968C7.61911 16.524 7.73511 16.953 7.91511 17.223C8.01287 17.3596 8.12192 17.4877 8.24111 17.606C8.44011 17.814 8.86911 17.766 9.00311 17.378C9.28611 16.564 9.66711 15.548 10.0511 14.778C11.1181 12.637 11.8071 11.276 13.6671 9.626C14.0071 9.324 14.4111 9.109 14.8031 8.954C15.6831 8.606 16.2501 7.806 16.1031 7.075L15.7511 5.31C15.6964 5.03674 15.5667 4.78412 15.3765 4.58046C15.1862 4.3768 14.943 4.23017 14.6741 4.157L9.07411 2.63C8.60619 2.50244 8.11686 2.47351 7.63717 2.54507C7.15748 2.61662 6.6979 2.78709 6.28757 3.04565C5.87725 3.30422 5.52514 3.64525 5.25359 4.04709C4.98204 4.44894 4.79696 4.90284 4.71011 5.38L4.02611 9.142C3.97367 9.43026 3.9852 9.72652 4.05988 10.0098C4.13457 10.2931 4.27059 10.5566 4.45833 10.7815C4.64607 11.0065 4.88093 11.1874 5.14632 11.3116C5.4117 11.4357 5.70112 11.5 5.99411 11.5H7.49911C7.57498 11.5002 7.64981 11.5176 7.71794 11.551C7.78607 11.5844 7.84571 11.6328 7.89234 11.6926C7.93898 11.7525 7.97139 11.8221 7.98711 11.8964C8.00284 11.9706 8.00147 12.0474 7.98311 12.121Z" fill="#CCCCCC"/>
</svg>