<svg width="8" height="10" viewBox="0 0 8 10" fill="none" xmlns="http://www.w3.org/2000/svg">
<path d="M3.24149 9.60143C3.5572 9.68964 3.80577 9.46571 3.89149 9.24857L3.98435 9.01286C4.70077 7.195 5.3547 5.53429 7.06006 4.67107C7.45327 4.47179 7.7272 4.04071 7.64863 3.56893L7.50006 2.6775C7.45846 2.42757 7.34681 2.19456 7.17808 2.00554C7.00936 1.81652 6.79047 1.67924 6.54685 1.60964L3.80042 0.825357C3.48084 0.734057 3.14584 0.709826 2.81645 0.754185C2.48706 0.798544 2.1704 0.910536 1.88636 1.08313C1.60232 1.25572 1.35704 1.48518 1.16592 1.75709C0.974796 2.02901 0.841968 2.33751 0.775775 2.66321L0.337203 4.8225C0.297654 5.01706 0.301857 5.21798 0.349508 5.41072C0.397158 5.60346 0.487064 5.78319 0.612718 5.93691C0.738373 6.09063 0.896632 6.21448 1.07604 6.29952C1.25545 6.38455 1.45152 6.42863 1.65006 6.42857L2.42399 6.42857C2.30077 6.96536 2.24399 7.5775 2.30042 8.11786C2.36613 8.75 2.60685 9.42464 3.24185 9.60143" fill="#2699EB"/>
</svg>