<svg width="149" height="25" viewBox="0 0 149 30" fill="none" xmlns="http://www.w3.org/2000/svg">
<path d="M12.892 10.3011L10.6335 10.9403C10.4915 10.5639 10.282 10.1982 10.005 9.84304C9.73509 9.48082 9.36577 9.18253 8.89702 8.94815C8.42827 8.71378 7.82812 8.59659 7.09659 8.59659C6.09517 8.59659 5.26065 8.82741 4.59304 9.28906C3.93253 9.74361 3.60227 10.3224 3.60227 11.0256C3.60227 11.6506 3.82955 12.1442 4.28409 12.5064C4.73864 12.8686 5.44886 13.1705 6.41477 13.4119L8.84375 14.0085C10.3068 14.3636 11.397 14.907 12.1143 15.6385C12.8317 16.3629 13.1903 17.2969 13.1903 18.4403C13.1903 19.3778 12.9205 20.2159 12.3807 20.9545C11.848 21.6932 11.1023 22.2756 10.1435 22.7017C9.18466 23.1278 8.0696 23.3409 6.7983 23.3409C5.12926 23.3409 3.74787 22.9787 2.65412 22.2543C1.56037 21.5298 0.867898 20.4716 0.576705 19.0795L2.96307 18.483C3.19034 19.3636 3.62003 20.0241 4.25213 20.4645C4.89134 20.9048 5.72585 21.125 6.75568 21.125C7.92756 21.125 8.85795 20.8764 9.54688 20.3793C10.2429 19.875 10.5909 19.2713 10.5909 18.5682C10.5909 18 10.392 17.5241 9.99432 17.1406C9.59659 16.75 8.9858 16.4588 8.16193 16.267L5.43466 15.6278C3.93608 15.2727 2.83523 14.7223 2.1321 13.9766C1.43608 13.2237 1.08807 12.2827 1.08807 11.1534C1.08807 10.2301 1.3473 9.41335 1.86577 8.70312C2.39134 7.9929 3.10511 7.43537 4.0071 7.03054C4.91619 6.62571 5.94602 6.4233 7.09659 6.4233C8.71591 6.4233 9.98722 6.77841 10.9105 7.48864C11.8409 8.19886 12.5014 9.13636 12.892 10.3011ZM24.0914 6.63636V8.76704H15.6113V6.63636H24.0914ZM18.0829 2.71591H20.5971V18.3125C20.5971 19.0227 20.7001 19.5554 20.9061 19.9105C21.1191 20.2585 21.389 20.4929 21.7157 20.6136C22.0495 20.7273 22.4011 20.7841 22.7704 20.7841C23.0474 20.7841 23.2747 20.7699 23.4522 20.7415C23.6298 20.706 23.7718 20.6776 23.8784 20.6562L24.3897 22.9148C24.2193 22.9787 23.9814 23.0426 23.676 23.1065C23.3706 23.1776 22.9835 23.2131 22.5147 23.2131C21.8045 23.2131 21.1085 23.0604 20.4267 22.755C19.752 22.4496 19.1909 21.9844 18.7434 21.3594C18.3031 20.7344 18.0829 19.946 18.0829 18.9943V2.71591ZM34.3453 23.3409C32.8681 23.3409 31.5719 22.9893 30.4569 22.2862C29.3489 21.5831 28.4824 20.5994 27.8574 19.3352C27.2395 18.071 26.9306 16.5937 26.9306 14.9034C26.9306 13.1989 27.2395 11.7109 27.8574 10.4396C28.4824 9.16832 29.3489 8.18111 30.4569 7.47798C31.5719 6.77486 32.8681 6.4233 34.3453 6.4233C35.8226 6.4233 37.1152 6.77486 38.2232 7.47798C39.3382 8.18111 40.2047 9.16832 40.8226 10.4396C41.4476 11.7109 41.7601 13.1989 41.7601 14.9034C41.7601 16.5937 41.4476 18.071 40.8226 19.3352C40.2047 20.5994 39.3382 21.5831 38.2232 22.2862C37.1152 22.9893 35.8226 23.3409 34.3453 23.3409ZM34.3453 21.0824C35.4675 21.0824 36.3908 20.7947 37.1152 20.2195C37.8397 19.6442 38.3759 18.8878 38.7239 17.9503C39.0719 17.0128 39.2459 15.9972 39.2459 14.9034C39.2459 13.8097 39.0719 12.7905 38.7239 11.8459C38.3759 10.9013 37.8397 10.1378 37.1152 9.5554C36.3908 8.97301 35.4675 8.68182 34.3453 8.68182C33.2232 8.68182 32.2999 8.97301 31.5755 9.5554C30.851 10.1378 30.3148 10.9013 29.9668 11.8459C29.6188 12.7905 29.4448 13.8097 29.4448 14.9034C29.4448 15.9972 29.6188 17.0128 29.9668 17.9503C30.3148 18.8878 30.851 19.6442 31.5755 20.2195C32.2999 20.7947 33.2232 21.0824 34.3453 21.0824ZM45.598 23V6.63636H48.027V9.10795H48.1974C48.4957 8.2983 49.0355 7.64134 49.8168 7.13707C50.598 6.63281 51.4787 6.38068 52.4588 6.38068C52.6435 6.38068 52.8743 6.38423 53.1513 6.39133C53.4283 6.39844 53.6378 6.40909 53.7798 6.4233V8.98011C53.6946 8.95881 53.4993 8.92685 53.1939 8.88423C52.8956 8.83452 52.5795 8.80966 52.2457 8.80966C51.4503 8.80966 50.7401 8.97656 50.1151 9.31037C49.4972 9.63707 49.0071 10.0916 48.6449 10.674C48.2898 11.2493 48.1122 11.9062 48.1122 12.6449V23H45.598ZM58.8775 29.1364C58.4513 29.1364 58.0714 29.1009 57.7376 29.0298C57.4038 28.9659 57.1729 28.902 57.0451 28.8381L57.6843 26.6222C58.2951 26.7784 58.8349 26.8352 59.3036 26.7926C59.7724 26.75 60.1879 26.5405 60.5501 26.1641C60.9194 25.7947 61.2567 25.1946 61.5621 24.3636L62.0309 23.0852L55.9798 6.63636H58.707L63.2241 19.6761H63.3945L67.9116 6.63636H70.6389L63.6928 25.3864C63.3803 26.2315 62.9933 26.9311 62.5316 27.4851C62.07 28.0462 61.5337 28.4616 60.9229 28.7315C60.3192 29.0014 59.6374 29.1364 58.8775 29.1364ZM78.2747 23.3835C77.2377 23.3835 76.2967 23.1882 75.4515 22.7976C74.6064 22.3999 73.9352 21.8281 73.438 21.0824C72.9409 20.3295 72.6923 19.4205 72.6923 18.3551C72.6923 17.4176 72.877 16.6577 73.2463 16.0753C73.6156 15.4858 74.1092 15.0241 74.7271 14.6903C75.345 14.3565 76.0268 14.108 76.7725 13.9446C77.5254 13.7741 78.2818 13.6392 79.0417 13.5398C80.036 13.4119 80.8422 13.3161 81.4601 13.2521C82.0851 13.1811 82.5396 13.0639 82.8237 12.9006C83.1149 12.7372 83.2605 12.4531 83.2605 12.0483V11.9631C83.2605 10.9119 82.9728 10.0952 82.3976 9.51278C81.8294 8.9304 80.9664 8.6392 79.8088 8.6392C78.6085 8.6392 77.6674 8.90199 76.9856 9.42756C76.3038 9.95312 75.8244 10.5142 75.5474 11.1108L73.161 10.2585C73.5872 9.2642 74.1554 8.49006 74.8656 7.93608C75.5829 7.375 76.3642 6.98437 77.2093 6.7642C78.0616 6.53693 78.8997 6.4233 79.7235 6.4233C80.2491 6.4233 80.8528 6.48722 81.5346 6.61506C82.2235 6.73579 82.8876 6.98793 83.5268 7.37145C84.1731 7.75497 84.7093 8.33381 85.1355 9.10795C85.5616 9.8821 85.7747 10.919 85.7747 12.2188V23H83.2605V20.7841H83.1326C82.9622 21.1392 82.6781 21.5192 82.2804 21.924C81.8826 22.3288 81.3535 22.6733 80.693 22.9574C80.0325 23.2415 79.2264 23.3835 78.2747 23.3835ZM78.6582 21.125C79.6525 21.125 80.4906 20.9297 81.1724 20.5391C81.8613 20.1484 82.3798 19.6442 82.7278 19.0263C83.0829 18.4084 83.2605 17.7585 83.2605 17.0767V14.7756C83.1539 14.9034 82.9196 15.0206 82.5574 15.1271C82.2022 15.2266 81.7903 15.3153 81.3216 15.3935C80.8599 15.4645 80.4089 15.5284 79.9686 15.5852C79.5353 15.6349 79.1838 15.6776 78.9139 15.7131C78.2605 15.7983 77.6497 15.9368 77.0815 16.1286C76.5204 16.3132 76.0659 16.5937 75.7179 16.9702C75.377 17.3395 75.2065 17.8437 75.2065 18.483C75.2065 19.3565 75.5297 20.017 76.176 20.4645C76.8294 20.9048 77.6568 21.125 78.6582 21.125ZM97.6506 6.63636V8.76704H88.8295V6.63636H97.6506ZM91.4716 23V4.37784C91.4716 3.44034 91.6918 2.65909 92.1321 2.03409C92.5724 1.40909 93.1442 0.940339 93.8473 0.627839C94.5504 0.315339 95.2926 0.159089 96.0739 0.159089C96.6918 0.159089 97.196 0.208806 97.5866 0.308238C97.9773 0.407669 98.2685 0.499999 98.4602 0.585226L97.7358 2.75852C97.608 2.71591 97.4304 2.66264 97.2031 2.59872C96.983 2.5348 96.6918 2.50284 96.3295 2.50284C95.4986 2.50284 94.8984 2.71236 94.5291 3.13139C94.1669 3.55043 93.9858 4.16477 93.9858 4.97443V23H91.4716ZM101.174 23V6.63636H103.603V9.10795H103.774C104.072 8.2983 104.612 7.64134 105.393 7.13707C106.174 6.63281 107.055 6.38068 108.035 6.38068C108.22 6.38068 108.45 6.38423 108.727 6.39133C109.004 6.39844 109.214 6.40909 109.356 6.4233V8.98011C109.271 8.95881 109.075 8.92685 108.77 8.88423C108.472 8.83452 108.156 8.80966 107.822 8.80966C107.026 8.80966 106.316 8.97656 105.691 9.31037C105.073 9.63707 104.583 10.0916 104.221 10.674C103.866 11.2493 103.688 11.9062 103.688 12.6449V23H101.174ZM112.336 23V6.63636H114.85V23H112.336ZM113.615 3.90909C113.125 3.90909 112.702 3.74219 112.347 3.40838C111.999 3.07457 111.825 2.6733 111.825 2.20455C111.825 1.7358 111.999 1.33452 112.347 1.00071C112.702 0.666903 113.125 0.5 113.615 0.5C114.105 0.5 114.524 0.666903 114.872 1.00071C115.227 1.33452 115.404 1.7358 115.404 2.20455C115.404 2.6733 115.227 3.07457 114.872 3.40838C114.524 3.74219 114.105 3.90909 113.615 3.90909ZM121.799 17.0341L121.757 13.9233H122.268L129.427 6.63636H132.538L124.91 14.3494H124.697L121.799 17.0341ZM119.455 23V1.18182H121.97V23H119.455ZM129.853 23L123.461 14.9034L125.251 13.1562L133.049 23H129.853ZM140.589 23.3835C139.552 23.3835 138.611 23.1882 137.766 22.7976C136.921 22.3999 136.25 21.8281 135.752 21.0824C135.255 20.3295 135.007 19.4205 135.007 18.3551C135.007 17.4176 135.191 16.6577 135.561 16.0753C135.93 15.4858 136.424 15.0241 137.042 14.6903C137.659 14.3565 138.341 14.108 139.087 13.9446C139.84 13.7741 140.596 13.6392 141.356 13.5398C142.35 13.4119 143.157 13.3161 143.775 13.2521C144.4 13.1811 144.854 13.0639 145.138 12.9006C145.429 12.7372 145.575 12.4531 145.575 12.0483V11.9631C145.575 10.9119 145.287 10.0952 144.712 9.51278C144.144 8.9304 143.281 8.6392 142.123 8.6392C140.923 8.6392 139.982 8.90199 139.3 9.42756C138.618 9.95312 138.139 10.5142 137.862 11.1108L135.475 10.2585C135.902 9.2642 136.47 8.49006 137.18 7.93608C137.897 7.375 138.679 6.98437 139.524 6.7642C140.376 6.53693 141.214 6.4233 142.038 6.4233C142.564 6.4233 143.167 6.48722 143.849 6.61506C144.538 6.73579 145.202 6.98793 145.841 7.37145C146.488 7.75497 147.024 8.33381 147.45 9.10795C147.876 9.8821 148.089 10.919 148.089 12.2188V23H145.575V20.7841H145.447C145.277 21.1392 144.993 21.5192 144.595 21.924C144.197 22.3288 143.668 22.6733 143.007 22.9574C142.347 23.2415 141.541 23.3835 140.589 23.3835ZM140.973 21.125C141.967 21.125 142.805 20.9297 143.487 20.5391C144.176 20.1484 144.694 19.6442 145.042 19.0263C145.397 18.4084 145.575 17.7585 145.575 17.0767V14.7756C145.468 14.9034 145.234 15.0206 144.872 15.1271C144.517 15.2266 144.105 15.3153 143.636 15.3935C143.174 15.4645 142.723 15.5284 142.283 15.5852C141.85 15.6349 141.498 15.6776 141.228 15.7131C140.575 15.7983 139.964 15.9368 139.396 16.1286C138.835 16.3132 138.38 16.5937 138.032 16.9702C137.691 17.3395 137.521 17.8437 137.521 18.483C137.521 19.3565 137.844 20.017 138.49 20.4645C139.144 20.9048 139.971 21.125 140.973 21.125Z" fill="black"/>
</svg>