<svg width="16" height="20" viewBox="0 0 16 20" fill="none" xmlns="http://www.w3.org/2000/svg">
<path d="M4.186 19.874H2.5C1.83696 19.874 1.20107 19.6106 0.732233 19.1418C0.263392 18.6729 0 18.037 0 17.374V2.5C0 1.83696 0.263392 1.20107 0.732233 0.732233C1.20107 0.263392 1.83696 0 2.5 0H4.186C4.84904 0 5.48493 0.263392 5.95377 0.732233C6.42261 1.20107 6.686 1.83696 6.686 2.5V17.374C6.686 18.037 6.42261 18.6729 5.95377 19.1418C5.48493 19.6106 4.84904 19.874 4.186 19.874ZM2.5 1C2.10218 1 1.72064 1.15804 1.43934 1.43934C1.15804 1.72064 1 2.10218 1 2.5V17.374C1 17.7718 1.15804 18.1534 1.43934 18.4347C1.72064 18.716 2.10218 18.874 2.5 18.874H4.186C4.58382 18.874 4.96536 18.716 5.24666 18.4347C5.52796 18.1534 5.686 17.7718 5.686 17.374V2.5C5.686 2.10218 5.52796 1.72064 5.24666 1.43934C4.96536 1.15804 4.58382 1 4.186 1H2.5ZM13.372 19.874H11.686C11.023 19.874 10.3871 19.6106 9.91823 19.1418C9.44939 18.6729 9.186 18.037 9.186 17.374V2.5C9.186 1.83696 9.44939 1.20107 9.91823 0.732233C10.3871 0.263392 11.023 0 11.686 0H13.372C14.035 0 14.6709 0.263392 15.1398 0.732233C15.6086 1.20107 15.872 1.83696 15.872 2.5V17.374C15.872 18.037 15.6086 18.6729 15.1398 19.1418C14.6709 19.6106 14.035 19.874 13.372 19.874ZM11.686 1C11.2882 1 10.9066 1.15804 10.6253 1.43934C10.344 1.72064 10.186 2.10218 10.186 2.5V17.374C10.186 17.7718 10.344 18.1534 10.6253 18.4347C10.9066 18.716 11.2882 18.874 11.686 18.874H13.372C13.7698 18.874 14.1514 18.716 14.4327 18.4347C14.714 18.1534 14.872 17.7718 14.872 17.374V2.5C14.872 2.10218 14.714 1.72064 14.4327 1.43934C14.1514 1.15804 13.7698 1 13.372 1H11.686Z" fill="#4A4A4A"/>
</svg>