<svg width="30" height="30" viewBox="0 0 30 30" fill="none" xmlns="http://www.w3.org/2000/svg">
<path d="M5.53866 16.0276L21.7887 27.2776C21.9762 27.4074 22.1957 27.4833 22.4233 27.4973C22.6509 27.5113 22.878 27.4628 23.08 27.3569C23.282 27.2511 23.4512 27.092 23.5693 26.8969C23.6874 26.7018 23.7498 26.4781 23.7499 26.2501V3.7501C23.7501 3.52194 23.6878 3.2981 23.5698 3.10282C23.4518 2.90755 23.2826 2.74829 23.0806 2.64231C22.8785 2.53633 22.6513 2.48767 22.4236 2.5016C22.1959 2.51553 21.9763 2.59153 21.7887 2.72135L5.53866 13.9713C5.37311 14.0869 5.23791 14.2407 5.14455 14.4197C5.05119 14.5987 5.00244 14.7976 5.00244 14.9995C5.00244 15.2014 5.05119 15.4002 5.14455 15.5792C5.23791 15.7582 5.37311 15.9121 5.53866 16.0276Z" fill="white"/>
</svg>