<svg width="24" height="24" viewBox="0 0 24 24" fill="none" xmlns="http://www.w3.org/2000/svg">
<path d="M10.5 13.5H12.98C13.1227 13.5 13.242 13.4523 13.338 13.357C13.434 13.2617 13.4813 13.1427 13.48 13C13.4787 12.8573 13.431 12.7383 13.337 12.643C13.243 12.5477 13.124 12.5 12.98 12.5H10.5C10.358 12.5 10.239 12.5477 10.143 12.643C10.047 12.7383 9.99934 12.8573 10 13C10.0007 13.1427 10.0483 13.2617 10.143 13.357C10.2377 13.4523 10.3567 13.5 10.5 13.5ZM10.5 10.5H16.462C16.604 10.5 16.7227 10.4523 16.818 10.357C16.9133 10.2617 16.9613 10.1427 16.962 10C16.9627 9.85734 16.9147 9.73834 16.818 9.643C16.7213 9.54767 16.6027 9.5 16.462 9.5H10.5C10.358 9.5 10.239 9.54767 10.143 9.643C10.047 9.73834 9.99934 9.85734 10 10C10.0007 10.1427 10.0483 10.2617 10.143 10.357C10.2377 10.4523 10.3567 10.5 10.5 10.5ZM10.5 7.5H16.462C16.604 7.5 16.7227 7.45234 16.818 7.357C16.9133 7.26167 16.9613 7.14267 16.962 7C16.9627 6.85734 16.9147 6.73834 16.818 6.643C16.7213 6.54767 16.6027 6.5 16.462 6.5H10.5C10.358 6.5 10.239 6.54767 10.143 6.643C10.047 6.73834 9.99934 6.85734 10 7C10.0007 7.14267 10.0483 7.26167 10.143 7.357C10.2377 7.45234 10.3567 7.5 10.5 7.5ZM8.116 17C7.65534 17 7.271 16.846 6.963 16.538C6.655 16.23 6.50067 15.8457 6.5 15.385V4.615C6.5 4.155 6.65434 3.77067 6.963 3.462C7.27167 3.15334 7.656 2.99934 8.116 3H18.885C19.345 3 19.7293 3.154 20.038 3.462C20.3467 3.77 20.5007 4.15434 20.5 4.615V15.385C20.5 15.845 20.346 16.229 20.038 16.537C19.73 16.845 19.3453 16.9993 18.884 17H8.116ZM8.116 16H18.885C19.0383 16 19.1793 15.936 19.308 15.808C19.4367 15.68 19.5007 15.539 19.5 15.385V4.615C19.5 4.46167 19.436 4.32067 19.308 4.192C19.18 4.06334 19.0387 3.99934 18.884 4H8.116C7.962 4 7.82067 4.064 7.692 4.192C7.56334 4.32 7.49934 4.461 7.5 4.615V15.385C7.5 15.5383 7.564 15.6793 7.692 15.808C7.82 15.9367 7.961 16.0007 8.115 16M5.115 20C4.655 20 4.27067 19.846 3.962 19.538C3.65334 19.23 3.49934 18.8457 3.5 18.385V7.115C3.5 6.973 3.54767 6.85434 3.643 6.759C3.73834 6.66367 3.85734 6.616 4 6.616C4.14267 6.616 4.26167 6.66367 4.357 6.759C4.45234 6.85434 4.5 6.97334 4.5 7.116V18.385C4.5 18.5383 4.564 18.6793 4.692 18.808C4.82 18.9367 4.961 19.0007 5.115 19H16.385C16.527 19 16.6457 19.0477 16.741 19.143C16.8363 19.2383 16.8843 19.3573 16.885 19.5C16.8857 19.6427 16.8377 19.7617 16.741 19.857C16.6443 19.9523 16.5257 20 16.385 20H5.115Z" fill="black"/>
</svg>