<svg width="13" height="13" viewBox="0 0 13 13" fill="none" xmlns="http://www.w3.org/2000/svg">
<path d="M11.7 0H1.3C0.955219 0 0.624558 0.136964 0.380761 0.380761C0.136964 0.624558 0 0.955219 0 1.3L0 13L2.6 10.4H11.7C12.0448 10.4 12.3754 10.263 12.6192 10.0192C12.863 9.77544 13 9.44478 13 9.1V1.3C13 0.955219 12.863 0.624558 12.6192 0.380761C12.3754 0.136964 12.0448 0 11.7 0ZM9.1 2.6C9.29284 2.6 9.48134 2.65718 9.64168 2.76432C9.80202 2.87145 9.92699 3.02373 10.0008 3.20188C10.0746 3.38004 10.0939 3.57608 10.0563 3.76521C10.0186 3.95434 9.92579 4.12807 9.78943 4.26443C9.65307 4.40079 9.47934 4.49364 9.29021 4.53127C9.10108 4.56889 8.90504 4.54958 8.72688 4.47578C8.54873 4.40199 8.39645 4.27702 8.28932 4.11668C8.18218 3.95634 8.125 3.76784 8.125 3.575C8.125 3.31641 8.22772 3.06842 8.41057 2.88557C8.59342 2.70272 8.84141 2.6 9.1 2.6ZM3.9 2.6C4.09284 2.6 4.28134 2.65718 4.44168 2.76432C4.60202 2.87145 4.72699 3.02373 4.80078 3.20188C4.87458 3.38004 4.89389 3.57608 4.85627 3.76521C4.81864 3.95434 4.72579 4.12807 4.58943 4.26443C4.45307 4.40079 4.27934 4.49364 4.09021 4.53127C3.90108 4.56889 3.70504 4.54958 3.52688 4.47578C3.34873 4.40199 3.19645 4.27702 3.08932 4.11668C2.98218 3.95634 2.925 3.76784 2.925 3.575C2.925 3.31641 3.02772 3.06842 3.21057 2.88557C3.39342 2.70272 3.64141 2.6 3.9 2.6ZM6.5 7.8C4.8035 7.8 3.3605 7.3645 2.8275 5.85H10.1725C9.6395 7.3645 8.1965 7.8 6.5 7.8Z" fill="#4A4A4A"/>
</svg>